<?xml version="1.0" encoding="utf-8"?>
<svg viewBox="0 0 512 512" fill="currentColor" xmlns="http://www.w3.org/2000/svg">
  <path d="M 512 255.999 C 512 452.775 298.667 575.76 128.001 477.372 C 48.793 431.711 0 347.323 0 255.999 C 0 59.225 213.333 -63.76 383.999 34.628 C 463.207 80.289 512 164.676 512 255.999 Z M 384.96 159.184 C 375.322 149.595 359.638 149.914 350.399 159.888 L 239.264 301.277 L 172.288 234.367 C 158.771 221.791 136.689 228.542 132.54 246.519 C 130.749 254.276 132.933 262.413 138.368 268.237 L 223.039 352.815 C 232.655 362.4 248.314 362.11 257.568 352.176 L 385.31 192.734 C 394.371 183.329 394.228 168.416 384.992 159.184 L 384.96 159.184 Z" style="fill: rgb(13, 110, 253);"/>
</svg>